<svg width="56" height="56" viewBox="0 0 56 56" fill="none" xmlns="http://www.w3.org/2000/svg">
<path d="M52.047 29.316C49.9709 28.8844 47.1586 28.6562 43.9141 28.6562C42.575 28.6562 41.311 28.6957 40.1406 28.7717V3.00781C40.1406 1.34936 38.7913 0 37.1328 0H3.00781C1.26492 0 0 1.449 0 3.44531V48.8359C0 50.0245 1.31392 51.4062 3.00781 51.4062H31.8281V52.6641C31.8281 54.5184 34.8033 55.1369 35.7812 55.3402C37.8572 55.7718 40.6696 56 43.9141 56C47.1586 56 49.9709 55.7718 52.047 55.3402C53.0248 55.1369 56 54.5184 56 52.6641V31.9922C56 30.1378 53.0248 29.5193 52.047 29.316ZM54.3594 42.3229C54.3424 42.3581 54.0011 42.961 51.4388 43.4529C49.4943 43.8262 46.8922 44.0235 43.9141 44.0235C40.9359 44.0235 38.3339 43.8262 36.3893 43.4529C33.7641 42.9489 33.4702 42.3281 33.4688 42.3281V39.1314C34.3273 39.5336 35.2979 39.7358 35.7812 39.8362C37.8572 40.2678 40.6696 40.496 43.9141 40.496C47.1586 40.496 49.9709 40.2678 52.047 39.8362C52.5301 39.7358 53.5008 39.5336 54.3594 39.1314V42.3229ZM21.1094 42.4922C20.6562 42.4922 20.2891 42.8594 20.2891 43.3125V45.3906H7.82031C7.39277 45.3906 7.10938 45.0404 7.10938 44.8984V36.75H20.2891V39.4844C20.2891 39.9375 20.6562 40.3047 21.1094 40.3047C21.5625 40.3047 21.9297 39.9375 21.9297 39.4844V36.75H31.8281V45.3906H21.9297V43.3125C21.9297 42.8594 21.5625 42.4922 21.1094 42.4922ZM35.1094 29.4658C33.8516 29.7743 31.8281 30.4627 31.8281 31.9922V35.1094H21.9297V26.4688H34.3984C34.7904 26.4688 35.1094 26.7877 35.1094 27.1797V29.4658ZM20.2891 35.1094H7.10938V27.3984C7.10938 26.8424 7.39506 26.4688 7.82031 26.4688H20.2891V35.1094ZM54.3594 37.1549C54.3424 37.1901 54.0011 37.793 51.4388 38.285C49.4943 38.6583 46.8922 38.8556 43.9141 38.8556C40.9359 38.8556 38.3339 38.6583 36.3893 38.285C33.7641 37.781 33.4702 37.1602 33.4688 37.1602V33.9635C34.3273 34.3656 35.2979 34.5679 35.7812 34.6683C37.8572 35.1 40.6696 35.3281 43.9141 35.3281C47.1586 35.3281 49.9709 35.1 52.047 34.6684C52.5301 34.568 53.5008 34.3657 54.3594 33.9636V37.1549ZM51.4388 30.8675C53.9131 31.3425 54.3165 31.9213 54.3566 31.9922C54.3165 32.0631 53.9131 32.6419 51.4388 33.1169C49.4943 33.4902 46.8922 33.6875 43.9141 33.6875C40.9359 33.6875 38.3339 33.4902 36.3893 33.1169C33.915 32.6419 33.5116 32.0631 33.4715 31.9922C33.5116 31.9213 33.915 31.3425 36.3893 30.8675C38.3339 30.4942 40.9359 30.2969 43.9141 30.2969C46.8922 30.2969 49.4943 30.4942 51.4388 30.8675ZM3.00781 49.7656C2.21791 49.7656 1.64062 49.1132 1.64062 48.8359V22.0938H28.6562C29.1094 22.0938 29.4766 21.7266 29.4766 21.2734C29.4766 20.8203 29.1094 20.4531 28.6562 20.4531H1.64062V3.44531C1.64062 2.34905 2.17722 1.64062 3.00781 1.64062H37.1328C37.8867 1.64062 38.5 2.25389 38.5 3.00781V20.4531H32.4844C32.0312 20.4531 31.6641 20.8203 31.6641 21.2734C31.6641 21.7266 32.0312 22.0938 32.4844 22.0938H38.5V28.9087C37.8798 28.9733 37.2957 29.0502 36.75 29.1387V27.1797C36.75 25.883 35.6951 24.8281 34.3984 24.8281H7.82031C6.4797 24.8281 5.46875 25.9331 5.46875 27.3984V44.8984C5.46875 46.0346 6.56764 47.0312 7.82031 47.0312H31.8281V49.7656H3.00781ZM51.4388 53.7888C49.4943 54.1621 46.8922 54.3594 43.9141 54.3594C40.9359 54.3594 38.3339 54.1621 36.3893 53.7888C33.7641 53.2849 33.4702 52.6641 33.4688 52.6641V49.4674C34.3273 49.8695 35.2979 50.0718 35.7812 50.1722C37.8572 50.6038 40.6696 50.8319 43.9141 50.8319C45.4774 50.8319 46.9582 50.7778 48.3153 50.6708C48.7669 50.6353 49.1042 50.2403 49.0687 49.7887C49.0331 49.3371 48.6371 48.9997 48.1866 49.0353C46.8721 49.1388 45.4347 49.1913 43.9141 49.1913C40.9359 49.1913 38.3339 48.994 36.3893 48.6207C33.7641 48.1169 33.4702 47.4961 33.4688 47.4961V44.2994C34.3273 44.7016 35.2979 44.9038 35.7812 45.0042C37.8572 45.4358 40.6696 45.664 43.9141 45.664C47.1586 45.664 49.9709 45.4358 52.047 45.0042C52.5301 44.9038 53.5008 44.7016 54.3594 44.2994V47.4907C54.3425 47.5257 54.0404 48.0597 51.8692 48.5327C51.4266 48.6292 51.1459 49.0663 51.2424 49.5089C51.3369 49.9547 51.7872 50.2334 52.2186 50.1357C52.6675 50.038 53.5561 49.8437 54.3594 49.468V52.6587C54.3424 52.694 54.0011 53.2968 51.4388 53.7888Z" fill="#F56A55"/>
<path d="M36.8594 15.3672V6.72656C36.8594 5.42992 35.8045 4.375 34.5078 4.375H16.4062C15.9531 4.375 15.5859 4.74217 15.5859 5.19531C15.5859 5.64845 15.9531 6.01562 16.4062 6.01562H34.5078C34.8998 6.01562 35.2188 6.33456 35.2188 6.72656V15.3672C35.2188 15.7592 34.8998 16.0781 34.5078 16.0781H7.82031C7.42831 16.0781 7.10938 15.7592 7.10938 15.3672V6.72656C7.10938 6.33456 7.42831 6.01562 7.82031 6.01562H12.5781C13.0313 6.01562 13.3984 5.64845 13.3984 5.19531C13.3984 4.74217 13.0313 4.375 12.5781 4.375H7.82031C6.52367 4.375 5.46875 5.42992 5.46875 6.72656V15.3672C5.46875 16.6638 6.52367 17.7188 7.82031 17.7188H34.5078C35.8045 17.7188 36.8594 16.6638 36.8594 15.3672Z" fill="#F56A55"/>
<path d="M17.2266 40.25H11.3203C10.8672 40.25 10.5 40.6172 10.5 41.0703C10.5 41.5235 10.8672 41.8906 11.3203 41.8906H17.2266C17.6797 41.8906 18.0469 41.5235 18.0469 41.0703C18.0469 40.6172 17.6797 40.25 17.2266 40.25Z" fill="#F56A55"/>
<path d="M11.8672 31.6094H13.4531V33.1953C13.4531 33.6485 13.8203 34.0156 14.2734 34.0156C14.7266 34.0156 15.0938 33.6485 15.0938 33.1953V31.6094H16.6797C17.1328 31.6094 17.5 31.2422 17.5 30.7891C17.5 30.3359 17.1328 29.9688 16.6797 29.9688H15.0938V28.3828C15.0938 27.9297 14.7266 27.5625 14.2734 27.5625C13.8203 27.5625 13.4531 27.9297 13.4531 28.3828V29.9688H11.8672C11.414 29.9688 11.0469 30.3359 11.0469 30.7891C11.0469 31.2422 11.414 31.6094 11.8672 31.6094Z" fill="#F56A55"/>
<path d="M30.2816 28.5075C29.9611 28.1873 29.4418 28.1873 29.1215 28.5075L28 29.6289L26.8786 28.5075C26.5582 28.1873 26.0388 28.1873 25.7185 28.5075C25.3981 28.828 25.3981 29.3473 25.7185 29.6677L26.8399 30.7891L25.7185 31.9105C25.3981 32.231 25.3981 32.7503 25.7185 33.0706C26.0389 33.3909 26.5582 33.3909 26.8786 33.0706L28 31.9492L29.1215 33.0706C29.4419 33.3909 29.9611 33.3909 30.2816 33.0706C30.602 32.7502 30.602 32.2309 30.2816 31.9105L29.1602 30.7891L30.2816 29.6677C30.602 29.3472 30.602 28.8279 30.2816 28.5075Z" fill="#F56A55"/>
<path d="M26.1566 43.766C26.3665 43.766 26.5765 43.6859 26.7367 43.5258L30.4555 39.8071C30.7758 39.4866 30.7758 38.9673 30.4555 38.6469C30.135 38.3267 29.6157 38.3267 29.2953 38.6469L25.5766 42.3657C25.2562 42.6861 25.2562 43.2054 25.5766 43.5258C25.7368 43.6859 25.9468 43.766 26.1566 43.766Z" fill="#F56A55"/>
<path d="M26.4141 39.8125C26.8671 39.8125 27.2344 39.4452 27.2344 38.9922C27.2344 38.5391 26.8671 38.1719 26.4141 38.1719C25.961 38.1719 25.5938 38.5391 25.5938 38.9922C25.5938 39.4452 25.961 39.8125 26.4141 39.8125Z" fill="#F56A55"/>
<path d="M29.6953 43.9688C30.1484 43.9688 30.5156 43.6015 30.5156 43.1484C30.5156 42.6954 30.1484 42.3281 29.6953 42.3281C29.2423 42.3281 28.875 42.6954 28.875 43.1484C28.875 43.6015 29.2423 43.9688 29.6953 43.9688Z" fill="#F56A55"/>
<path d="M31.7734 14.5469C32.8288 14.5469 33.6875 13.6882 33.6875 12.6328V9.46094C33.6875 8.40558 32.8288 7.54688 31.7734 7.54688H30.2422C29.1868 7.54688 28.3281 8.40558 28.3281 9.46094V12.6328C28.3281 13.6882 29.1868 14.5469 30.2422 14.5469H31.7734ZM29.9688 12.6328V9.46094C29.9688 9.31011 30.0914 9.1875 30.2422 9.1875H31.7734C31.9243 9.1875 32.0469 9.31011 32.0469 9.46094V12.6328C32.0469 12.7836 31.9243 12.9062 31.7734 12.9062H30.2422C30.0914 12.9062 29.9688 12.7836 29.9688 12.6328Z" fill="#F56A55"/>
</svg>
