<svg width="40" height="40" viewBox="0 0 40 40" fill="none" xmlns="http://www.w3.org/2000/svg">
<g clip-path="url(#clip0)">
<path d="M20.9374 4.77262C20.9638 4.77262 20.9894 4.77247 21.0156 4.77247C24.8234 4.77247 28.3915 6.24466 31.0692 8.92232C33.7689 11.6221 35.2457 15.2206 35.2274 19.0549C35.2233 19.9178 35.9195 20.6207 36.7825 20.6248C36.785 20.6248 36.7875 20.6248 36.79 20.6248C37.6493 20.6248 38.3482 19.9302 38.3523 19.0698C38.3746 14.395 36.5728 10.0065 33.2789 6.71255C30.0106 3.44418 25.6587 1.64746 21.016 1.64746C20.9875 1.64746 20.9588 1.64754 20.9302 1.64762C20.0672 1.65176 19.371 2.35465 19.3751 3.21754C19.3792 4.07793 20.078 4.77262 20.9374 4.77262Z" fill="#01B29E"/>
<path d="M39.9963 32.2314C39.9405 30.6842 39.296 29.2403 38.1815 28.1657C35.9994 26.0615 34.1712 24.8468 32.4279 24.3431C30.0255 23.6488 27.8009 24.2802 25.8153 26.2193C25.8123 26.2222 25.8093 26.2252 25.8063 26.2281L23.6918 28.327C22.3784 27.5892 19.8253 25.9655 17.0329 23.173L16.8272 22.9675C14.0532 20.1935 12.4192 17.6259 11.6757 16.3071L13.7725 14.1945C13.7755 14.1916 13.7784 14.1886 13.7814 14.1855C15.7205 12.2001 16.3518 9.97523 15.6576 7.57303C15.1539 5.82983 13.9393 4.00154 11.835 1.81943C10.7604 0.704972 9.31652 0.0604398 7.7694 0.0046584C6.2226 -0.0510448 4.73565 0.48755 3.58338 1.52193L3.53854 1.56224C3.51768 1.58091 3.49736 1.60021 3.4776 1.61997C1.18384 3.91357 -0.0185036 7.12467 0.000402683 10.906C0.032434 17.3295 3.56283 24.6755 9.44409 30.5567C9.44902 30.5616 9.45386 30.5664 9.45878 30.5712C10.5644 31.6753 11.8197 32.7678 13.1902 33.8186C13.875 34.3437 14.8557 34.2142 15.3809 33.5294C15.906 32.8446 15.7765 31.8638 15.0917 31.3387C13.8232 30.3662 12.6666 29.3596 11.6539 28.3468C11.649 28.342 11.6442 28.3371 11.6393 28.3324C6.33573 23.0228 3.15338 16.5038 3.12533 10.8903C3.1108 7.97811 3.98682 5.5474 5.65901 3.85795L5.67096 3.84717C6.80675 2.82779 8.52628 2.88982 9.58566 3.98842C13.6311 8.18358 13.3381 10.1641 11.5506 11.9971L8.65417 14.9153C8.19995 15.373 8.07347 16.0627 8.33581 16.6517C8.40933 16.8169 10.1881 20.7476 14.6182 25.1777L14.8238 25.3831C19.2533 29.8127 23.184 31.5914 23.3492 31.665C23.9383 31.9274 24.628 31.8008 25.0856 31.3466L28.0033 28.4507C29.8366 26.6629 31.8172 26.3696 36.0125 30.4151C37.1111 31.4745 37.1731 33.194 36.1539 34.3296L36.1429 34.3418C34.4671 36.0004 32.0623 36.8757 29.1818 36.8757C29.1581 36.8757 29.1343 36.8757 29.1105 36.8755C26.8081 36.864 24.1419 36.2329 21.4004 35.0504C20.6081 34.7085 19.6886 35.0738 19.3468 35.8662C19.0051 36.6586 19.3704 37.578 20.1627 37.9198C23.3316 39.2867 26.3369 39.9867 29.0949 40.0005C29.1242 40.0006 29.1534 40.0007 29.1826 40.0007C32.9259 40.0006 36.1051 38.7992 38.3809 36.5233C38.4007 36.5035 38.4199 36.4832 38.4386 36.4624L38.4792 36.4173C39.5132 35.2652 40.0521 33.7786 39.9963 32.2314Z" fill="#01B29E"/>
<path d="M28.8639 11.1368C27.1878 9.46066 25.5793 9.01589 24.8061 8.80206C23.9742 8.57199 23.1137 9.0598 22.8837 9.8916C22.6537 10.7233 23.1414 11.584 23.9732 11.814C24.6054 11.9889 25.5607 12.2531 26.6542 13.3464C27.7068 14.399 27.9864 15.3493 28.1714 15.9781L28.194 16.0546C28.3951 16.734 29.0173 17.174 29.6916 17.174C29.8385 17.1741 29.9879 17.1532 30.1358 17.1093C30.9632 16.8644 31.4355 15.995 31.1905 15.1676L31.1693 15.0959C30.9283 14.277 30.4797 12.7526 28.8639 11.1368Z" fill="#01B29E"/>
</g>
<defs>
<clipPath id="clip0">
<rect width="40" height="40" fill="white"/>
</clipPath>
</defs>
</svg>
