<svg width="10" height="10" viewBox="0 0 10 10" fill="none" xmlns="http://www.w3.org/2000/svg">
<path d="M8.74156 1.06672C8.4746 0.80284 8.12361 0.640834 7.74961 0.608864C7.3756 0.576893 7.00221 0.676978 6.69434 0.891724C7.684 1.30377 8.49246 2.058 8.97211 3.01672C9.15726 2.71272 9.23516 2.35542 9.19337 2.00193C9.15157 1.64845 8.9925 1.31917 8.74156 1.06672Z" fill="#000A31"/>
<path d="M3.17228 0.952666C2.86568 0.709159 2.48055 0.586303 2.08958 0.607285C1.6986 0.628266 1.32883 0.791634 1.05005 1.06655C0.773577 1.34486 0.60983 1.71561 0.590342 2.10743C0.570854 2.49924 0.697002 2.88441 0.944499 3.18878C1.3902 2.19712 2.18229 1.40207 3.17228 0.952666Z" fill="#000A31"/>
<path d="M5 1.11108C4.23218 1.11267 3.48202 1.34151 2.84406 1.76876C2.2061 2.19601 1.70888 2.80255 1.41509 3.51193C1.1213 4.22132 1.04407 5.00179 1.19314 5.755C1.34221 6.5082 1.71092 7.20042 2.25278 7.74442L1.54444 8.45275C1.51872 8.47901 1.49843 8.51009 1.48472 8.54419C1.47102 8.5783 1.46416 8.61477 1.46455 8.65153C1.46493 8.68829 1.47256 8.72461 1.48698 8.75842C1.5014 8.79223 1.52234 8.82287 1.54861 8.84858C1.57487 8.8743 1.60595 8.89459 1.64005 8.9083C1.67416 8.92201 1.71063 8.92887 1.74739 8.92848C1.78414 8.92809 1.82047 8.92047 1.85428 8.90605C1.88809 8.89162 1.91872 8.87068 1.94444 8.84442L2.68333 8.10553C3.35903 8.61685 4.18418 8.8917 5.03154 8.88768C5.87889 8.88366 6.70139 8.60101 7.37222 8.08331L8.13333 8.84442C8.18647 8.88992 8.25482 8.9137 8.32473 8.911C8.39464 8.9083 8.46096 8.87932 8.51043 8.82985C8.5599 8.78038 8.58888 8.71406 8.59158 8.64415C8.59428 8.57424 8.57051 8.50589 8.525 8.45275L7.77778 7.71664C8.31202 7.16942 8.67305 6.47683 8.81573 5.7255C8.95841 4.97417 8.87639 4.19744 8.57994 3.49248C8.28349 2.78751 7.78576 2.1856 7.14901 1.76203C6.51226 1.33847 5.76476 1.11204 5 1.11108ZM7.075 5.95275C7.04317 6.01892 6.98645 6.0698 6.91722 6.09427C6.84799 6.11873 6.77189 6.11479 6.70555 6.08331L4.72222 5.12219V2.69164C4.72222 2.61797 4.75149 2.54731 4.80358 2.49522C4.85567 2.44313 4.92633 2.41386 5 2.41386C5.07367 2.41386 5.14432 2.44313 5.19642 2.49522C5.24851 2.54731 5.27778 2.61797 5.27778 2.69164V4.77497L6.94444 5.58331C6.97769 5.59856 7.0076 5.62024 7.03245 5.64708C7.05731 5.67393 7.07661 5.70542 7.08926 5.73975C7.1019 5.77408 7.10764 5.81056 7.10615 5.84712C7.10466 5.88367 7.09596 5.91957 7.08055 5.95275H7.075Z" fill="#000A31"/>
</svg>
