<svg width="10" height="10" viewBox="0 0 10 10" fill="none" xmlns="http://www.w3.org/2000/svg">
<path d="M10 5C10 7.41625 7.76125 9.375 5 9.375C4.50478 9.37567 4.01162 9.31137 3.53312 9.18375C3.16812 9.36875 2.33 9.72375 0.92 9.955C0.795 9.975 0.7 9.845 0.749375 9.72875C0.970625 9.20625 1.17062 8.51 1.23063 7.875C0.465 7.10625 0 6.1 0 5C0 2.58375 2.23875 0.625 5 0.625C7.76125 0.625 10 2.58375 10 5ZM3.125 5C3.125 4.83424 3.05915 4.67527 2.94194 4.55806C2.82473 4.44085 2.66576 4.375 2.5 4.375C2.33424 4.375 2.17527 4.44085 2.05806 4.55806C1.94085 4.67527 1.875 4.83424 1.875 5C1.875 5.16576 1.94085 5.32473 2.05806 5.44194C2.17527 5.55915 2.33424 5.625 2.5 5.625C2.66576 5.625 2.82473 5.55915 2.94194 5.44194C3.05915 5.32473 3.125 5.16576 3.125 5ZM5.625 5C5.625 4.83424 5.55915 4.67527 5.44194 4.55806C5.32473 4.44085 5.16576 4.375 5 4.375C4.83424 4.375 4.67527 4.44085 4.55806 4.55806C4.44085 4.67527 4.375 4.83424 4.375 5C4.375 5.16576 4.44085 5.32473 4.55806 5.44194C4.67527 5.55915 4.83424 5.625 5 5.625C5.16576 5.625 5.32473 5.55915 5.44194 5.44194C5.55915 5.32473 5.625 5.16576 5.625 5ZM7.5 5.625C7.66576 5.625 7.82473 5.55915 7.94194 5.44194C8.05915 5.32473 8.125 5.16576 8.125 5C8.125 4.83424 8.05915 4.67527 7.94194 4.55806C7.82473 4.44085 7.66576 4.375 7.5 4.375C7.33424 4.375 7.17527 4.44085 7.05806 4.55806C6.94085 4.67527 6.875 4.83424 6.875 5C6.875 5.16576 6.94085 5.32473 7.05806 5.44194C7.17527 5.55915 7.33424 5.625 7.5 5.625Z" fill="#000A31"/>
</svg>
