<svg width="56" height="56" viewBox="0 0 56 56" fill="none" xmlns="http://www.w3.org/2000/svg">
<path d="M28 46.6668H6.53345C3.95715 46.6638 1.86963 44.5759 1.86664 42V1.86664H35.4666V28.9335C35.4666 29.4488 35.8848 29.8666 36.4001 29.8666C36.9153 29.8666 37.3332 29.4488 37.3332 28.9335V7.46655H40.1334V27.0665C40.1334 27.5822 40.5512 28 41.0669 28C41.5822 28 42 27.5822 42 27.0665V7.46655H44.8002V27.0665C44.8002 27.5822 45.218 28 45.7333 28C46.249 28 46.6668 27.5822 46.6668 27.0665V6.53345C46.6668 6.01776 46.249 5.59991 45.7333 5.59991H37.3332V0.933533C37.3332 0.417847 36.9153 0 36.4001 0H0.933533C0.417847 0 0 0.417847 0 0.933533V42C0.00427246 45.6064 2.92664 48.5292 6.53345 48.5334H28C28.5153 48.5334 28.9335 48.1156 28.9335 47.5999C28.9335 47.0847 28.5157 46.6668 28 46.6668Z" fill="#2247A5"/>
<path d="M55.067 39.1999H53.4866C53.3563 38.829 53.2059 38.465 53.0367 38.11L54.1569 36.9902C54.5209 36.6257 54.5209 36.0349 54.1569 35.6704L50.1968 31.7103C49.8323 31.3458 49.2415 31.3458 48.877 31.7103L47.7568 32.8301C47.4017 32.6609 47.0377 32.5109 46.6669 32.3802V30.8002C46.6669 30.2845 46.249 29.8667 45.7333 29.8667H40.1334C39.6177 29.8667 39.1999 30.2845 39.1999 30.8002V32.3802C38.829 32.5109 38.465 32.6609 38.11 32.8301L36.9897 31.7103C36.6253 31.3458 36.0349 31.3458 35.67 31.7103L31.7098 35.6704C31.3458 36.0349 31.3458 36.6253 31.7098 36.9902L32.8301 38.11C32.6609 38.465 32.5105 38.829 32.3802 39.1999H30.7998C30.2845 39.1999 29.8667 39.6182 29.8667 40.1334V45.7333C29.8667 46.249 30.2845 46.6669 30.7998 46.6669H32.3802C32.5105 47.0377 32.6609 47.4017 32.8301 47.7568L31.7098 48.877C31.3458 49.2415 31.3458 49.8319 31.7098 50.1968L35.67 54.1569C36.0344 54.5209 36.6253 54.5209 36.9897 54.1569L38.11 53.0367C38.465 53.2059 38.829 53.3563 39.1999 53.4866V55.067C39.1999 55.5822 39.6177 56.0001 40.1334 56.0001H45.7333C46.249 56.0001 46.6669 55.5822 46.6669 55.067V53.4866C47.0377 53.3563 47.4017 53.2059 47.7568 53.0367L48.877 54.1569C49.2415 54.5209 49.8319 54.5209 50.1968 54.1569L54.1569 50.1968C54.5209 49.8323 54.5209 49.2415 54.1569 48.877L53.0367 47.7568C53.2059 47.4017 53.3563 47.0377 53.4866 46.6669H55.067C55.5822 46.6669 56.0001 46.249 56.0001 45.7333V40.1334C56.0001 39.6182 55.5822 39.1999 55.067 39.1999ZM54.1334 44.8002H52.8034C52.386 44.8002 52.0194 45.0771 51.9058 45.4787C51.7092 46.1755 51.4324 46.8476 51.0803 47.4808C50.8774 47.8448 50.9406 48.2998 51.2354 48.595L52.1689 49.5281L49.5333 52.1736L48.5997 51.2401C48.3049 50.9453 47.8499 50.8821 47.4855 51.085C46.8523 51.4371 46.1807 51.7139 45.4834 51.91C45.0818 52.0241 44.8049 52.3907 44.8049 52.8081V54.1334H41.067V52.8034C41.067 52.386 40.7897 52.0194 40.3885 51.9058C39.6912 51.7092 39.0192 51.4324 38.3864 51.0803C38.022 50.8774 37.567 50.9406 37.2717 51.2354L36.3386 52.1689L33.6935 49.5333L34.6266 48.5997C34.9219 48.3045 34.9851 47.8499 34.7817 47.4855C34.4297 46.8523 34.1528 46.1807 33.9567 45.4834C33.8448 45.0818 33.4803 44.8028 33.0634 44.8002H31.7333V41.067H33.0634C33.4808 41.067 33.8474 40.7897 33.9614 40.3885C34.1575 39.6912 34.4344 39.0192 34.7864 38.3864C34.9898 38.022 34.9266 37.567 34.6313 37.2717L33.6982 36.3386L36.3339 33.6935L37.267 34.6266C37.5623 34.9219 38.0173 34.9851 38.3817 34.7817C39.0145 34.4297 39.6865 34.1528 40.3838 33.9567C40.7854 33.8448 41.064 33.4803 41.067 33.0634V31.7333H44.8002V33.0634C44.8002 33.4808 45.0771 33.8474 45.4787 33.9614C46.176 34.1575 46.8476 34.4344 47.4808 34.7864C47.8452 34.9898 48.2998 34.9266 48.595 34.6313L49.5286 33.6982L52.1736 36.3339L51.2401 37.267C50.9453 37.5623 50.8821 38.0173 51.085 38.3817C51.4371 39.0145 51.7139 39.6865 51.9105 40.3838C52.0241 40.785 52.3907 41.0623 52.8081 41.0623H54.1334V44.8002Z" fill="#2247A5"/>
<path d="M42.9336 36.4001C39.3251 36.4001 36.4001 39.3251 36.4001 42.9336C36.4001 46.5417 39.3251 49.4666 42.9336 49.4666C46.5417 49.4666 49.4666 46.5417 49.4666 42.9336C49.4628 39.3268 46.54 36.4044 42.9336 36.4001ZM42.9336 47.6C40.356 47.6 38.2668 45.5107 38.2668 42.9336C38.2668 40.356 40.356 38.2668 42.9336 38.2668C45.5107 38.2668 47.6 40.356 47.6 42.9336C47.597 45.5095 45.5095 47.597 42.9336 47.6Z" fill="#2247A5"/>
<path d="M30.8001 5.59985H19.5999C19.0846 5.59985 18.6667 6.0177 18.6667 6.53339C18.6667 7.04865 19.0846 7.46649 19.5999 7.46649H30.8001C31.3154 7.46649 31.7332 7.04865 31.7332 6.53339C31.7332 6.0177 31.3154 5.59985 30.8001 5.59985Z" fill="#2247A5"/>
<path d="M30.8001 11.1997H19.5999C19.0846 11.1997 18.6667 11.6176 18.6667 12.1332C18.6667 12.6485 19.0846 13.0663 19.5999 13.0663H30.8001C31.3154 13.0663 31.7332 12.6485 31.7332 12.1332C31.7332 11.6176 31.3154 11.1997 30.8001 11.1997Z" fill="#2247A5"/>
<path d="M30.8001 18.6667H19.5999C19.0846 18.6667 18.6667 19.0846 18.6667 19.5999C18.6667 20.1155 19.0846 20.5334 19.5999 20.5334H30.8001C31.3154 20.5334 31.7332 20.1155 31.7332 19.5999C31.7332 19.0846 31.3154 18.6667 30.8001 18.6667Z" fill="#2247A5"/>
<path d="M30.8001 24.2666H19.5999C19.0846 24.2666 18.6667 24.6844 18.6667 25.1997C18.6667 25.7154 19.0846 26.1332 19.5999 26.1332H30.8001C31.3154 26.1332 31.7332 25.7154 31.7332 25.1997C31.7332 24.6844 31.3154 24.2666 30.8001 24.2666Z" fill="#2247A5"/>
<path d="M28.9335 31.7334H19.5999C19.0846 31.7334 18.6667 32.1512 18.6667 32.6669C18.6667 33.1822 19.0846 33.6 19.5999 33.6H28.9335C29.4487 33.6 29.8666 33.1822 29.8666 32.6669C29.8666 32.1512 29.4487 31.7334 28.9335 31.7334Z" fill="#2247A5"/>
<path d="M27.0668 39.1999C27.5821 39.1999 27.9999 38.782 27.9999 38.2668C27.9999 37.7511 27.5821 37.3333 27.0668 37.3333H19.5999C19.0846 37.3333 18.6667 37.7511 18.6667 38.2668C18.6667 38.782 19.0846 39.1999 19.5999 39.1999H27.0668Z" fill="#2247A5"/>
<path d="M16.5267 5.87329C16.1622 5.50885 15.5714 5.50885 15.2069 5.87329L14.8681 6.2121C14.7361 5.84595 14.3892 5.60156 13.9999 5.59985H6.53339C6.0177 5.59985 5.59985 6.0177 5.59985 6.53339V13.9999C5.59985 14.5152 6.0177 14.933 6.53339 14.933H13.9999C14.5152 14.933 14.9335 14.5152 14.9335 13.9999V8.78625L16.5267 7.19305C16.8907 6.82861 16.8907 6.23773 16.5267 5.87329ZM13.0668 13.0664H7.46649V7.46649H13.0668V8.01337L11.1998 9.88L9.99323 8.67346C9.62238 8.31543 9.03149 8.32568 8.67346 8.69611C8.32397 9.05798 8.32397 9.63135 8.67346 9.99323L10.5401 11.8599C10.9045 12.2243 11.4954 12.2243 11.8599 11.8599L13.0668 10.6529V13.0664Z" fill="#2247A5"/>
<path d="M16.5267 18.9402C16.1622 18.5757 15.5714 18.5757 15.2069 18.9402L14.8681 19.279C14.7361 18.9128 14.3892 18.6685 13.9999 18.6667H6.53339C6.0177 18.6667 5.59985 19.0846 5.59985 19.5999V27.0668C5.59985 27.5821 6.0177 27.9999 6.53339 27.9999H13.9999C14.5152 27.9999 14.9335 27.5821 14.9335 27.0668V21.8531L16.5267 20.2599C16.8907 19.8955 16.8907 19.3046 16.5267 18.9402ZM13.0668 26.1333H7.46649V20.5334H13.0668V21.0803L11.1998 22.9469L9.99323 21.7399C9.62238 21.3819 9.03149 21.3922 8.67346 21.763C8.32397 22.1249 8.32397 22.6982 8.67346 23.0597L10.5401 24.9263C10.9045 25.2908 11.4954 25.2908 11.8599 24.9263L13.0668 23.7198V26.1333Z" fill="#2247A5"/>
<path d="M15.2069 32.0068L14.8681 32.3456C14.7361 31.9795 14.3892 31.7351 13.9999 31.7334H6.53339C6.0177 31.7334 5.59985 32.1512 5.59985 32.6669V40.1335C5.59985 40.6487 6.0177 41.067 6.53339 41.067H13.9999C14.5152 41.067 14.9335 40.6487 14.9335 40.1335V34.9198L16.5267 33.3266C16.8847 32.9557 16.8744 32.3649 16.5036 32.0068C16.1417 31.6578 15.5684 31.6578 15.2069 32.0068ZM13.0668 39.2H7.46649V33.6H13.0668V34.1469L11.1998 36.0135L9.99322 34.807C9.62237 34.449 9.03149 34.4592 8.67346 34.8297C8.32397 35.1915 8.32397 35.7649 8.67346 36.1268L10.5401 37.9934C10.9045 38.3578 11.4954 38.3578 11.8599 37.9934L13.0668 36.7864V39.2Z" fill="#2247A5"/>
</svg>
