<svg width="40" height="40" viewBox="0 0 40 40" fill="none" xmlns="http://www.w3.org/2000/svg">
<path d="M27.545 23.025V20.604H29.967V18.789H27.545V16.368H25.73V18.789H23.309V20.604H25.73V23.025H27.545ZM16.052 16.302C17.185 16.302 17.948 16.786 18.382 17.198L20.104 15.528C19.056 14.548 17.689 13.948 16.052 13.948C12.714 13.947 10 16.659 10 20C10 23.341 12.714 26.053 16.052 26.053C19.545 26.053 21.864 23.596 21.864 20.14C21.864 19.637 21.8 19.28 21.711 18.9H16.049V21.156H19.381C19.223 22.107 18.37 23.712 16.052 23.712C14.049 23.712 12.415 22.047 12.415 20.008C12.415 17.966 14.049 16.302 16.052 16.302Z" fill="#DC432C"/>
<rect x="1.5" y="1.5" width="37" height="37" stroke="#DC432C" stroke-width="3"/>
</svg>
