<svg width="40" height="40" viewBox="0 0 40 40" fill="none" xmlns="http://www.w3.org/2000/svg">
<rect x="1.5" y="1.5" width="37" height="37" stroke="#3EB1DD" stroke-width="3"/>
<g clip-path="url(#clip0)">
<path d="M13.4482 31.9408V16.4626H8.30361V31.9408H13.4482ZM10.8766 14.3481C12.6706 14.3481 13.7873 13.1595 13.7873 11.6743C13.7538 10.1555 12.6707 8.99994 10.9106 8.99994C9.15085 8.99994 8.00008 10.1555 8.00008 11.6743C8.00008 13.1596 9.11649 14.3481 10.843 14.3481H10.8764H10.8766ZM16.2957 31.9408H21.4403V23.297C21.4403 22.8344 21.4738 22.3723 21.6096 22.0416C21.9815 21.1173 22.828 20.1601 24.2492 20.1601C26.1108 20.1601 26.8556 21.5795 26.8556 23.6602V31.9407H31.9998V23.0656C31.9998 18.3114 29.4618 16.0993 26.0769 16.0993C23.3016 16.0993 22.0831 17.6506 21.4061 18.7071H21.4405V16.4623H16.2958C16.3634 17.9147 16.2958 31.9405 16.2958 31.9405L16.2957 31.9408Z" fill="#3EB1DD"/>
</g>
<defs>
<clipPath id="clip0">
<rect width="24" height="22.9408" fill="white" transform="translate(8 9)"/>
</clipPath>
</defs>
</svg>
