<svg width="40" height="40" viewBox="0 0 40 40" fill="none" xmlns="http://www.w3.org/2000/svg">
<path d="M39.7712 13.0413L35.7812 9.05133V0.78125C35.7812 0.349766 35.4314 0 35 0H23.4905C23.0591 0 22.7092 0.349766 22.7092 0.78125C22.7092 1.21273 23.0591 1.5625 23.4905 1.5625H34.2188V17.4888L19.9648 31.7428L5.78125 17.5592V1.5625H16.4592C16.8906 1.5625 17.2405 1.21273 17.2405 0.78125C17.2405 0.349766 16.8906 0 16.4592 0H5C4.56859 0 4.21875 0.349766 4.21875 0.78125V9.05133L0.228828 13.0413C0.0823437 13.1878 0 13.3866 0 13.5938V36.0938C0 38.2477 1.75234 40 3.90625 40H36.0938C38.2477 40 40 38.2477 40 36.0938V13.5938C40 13.3866 39.9177 13.1878 39.7712 13.0413ZM38.4375 36.0938C38.4375 36.4551 38.3552 36.7976 38.2084 37.1036L27.5112 26.4062L38.4375 15.4799V36.0938ZM35.7812 11.2611L38.1139 13.5938L35.7812 15.9263V11.2611ZM1.79156 37.1036C1.64484 36.7976 1.5625 36.4552 1.5625 36.0938V15.5502L12.4537 26.4414L1.79156 37.1036ZM4.21875 15.9966L1.85094 13.6289L4.21875 11.2611V15.9966ZM3.90625 38.4375C3.54492 38.4375 3.20242 38.3552 2.89648 38.2084L13.5586 27.5463L19.4124 33.4001C19.559 33.5466 19.7577 33.6289 19.9648 33.6289C20.172 33.6289 20.3707 33.5466 20.5173 33.4001L26.4062 27.5112L37.1036 38.2085C36.7976 38.3552 36.4552 38.4376 36.0938 38.4376H3.90625V38.4375Z" fill="#336CD9"/>
<path d="M19.975 1.5625C20.1804 1.5625 20.382 1.47891 20.5273 1.33359C20.6726 1.18828 20.7562 0.986719 20.7562 0.78125C20.7562 0.575781 20.6726 0.374219 20.5273 0.228906C20.382 0.0835938 20.1804 0 19.975 0C19.7687 0 19.5679 0.0835938 19.4226 0.228906C19.2774 0.374219 19.1937 0.575781 19.1937 0.78125C19.1937 0.986719 19.2773 1.18828 19.4226 1.33359C19.5679 1.47891 19.7687 1.5625 19.975 1.5625Z" fill="#336CD9"/>
<path d="M12.6096 9.46693C11.5497 11.3928 11.2709 13.613 11.8247 15.7186C12.3044 17.5425 13.34 19.1159 14.8199 20.2688C16.2446 21.3789 18.0194 22.0176 19.8171 22.0673C19.8245 22.0676 19.8317 22.0676 19.839 22.0676C20.2605 22.0676 20.6078 21.7319 20.6196 21.308C20.6314 20.8767 20.2915 20.5173 19.8602 20.5055C16.7992 20.4208 14.1164 18.289 13.3357 15.3212C12.3957 11.7468 14.42 8.06794 17.9444 6.94599C19.7324 6.37677 21.6304 6.54443 23.2889 7.41786C24.944 8.28951 26.1541 9.75435 26.6975 11.5435C27.0437 12.8508 26.9314 14.0628 26.323 15.5928C26.1495 16.029 25.6108 17.0436 24.3577 17.0436C24.1595 17.0436 23.9589 16.9517 23.7929 16.7849C23.5703 16.5612 23.4435 16.2452 23.4452 15.9143V9.45521C23.4452 9.02373 23.0953 8.67396 22.6639 8.67396C22.2324 8.67396 21.8827 9.02373 21.8827 9.45521V9.70404C21.2728 9.19568 20.5153 8.90544 19.6667 8.90544C17.6935 8.90544 15.6526 10.616 15.6526 13.4785C15.6526 14.7401 16.0524 15.9218 16.7785 16.8057C17.5144 17.7019 18.5372 18.2158 19.5845 18.2158C20.5661 18.2158 21.4503 17.7823 22.1235 17.0597C22.259 17.3667 22.4483 17.6487 22.6853 17.8869C23.1467 18.3506 23.7406 18.606 24.3577 18.606C26.163 18.606 27.3066 17.3477 27.7749 16.1701C28.5092 14.3235 28.6417 12.7686 28.2039 11.1284C28.2017 11.1203 28.1994 11.1122 28.197 11.1041C27.5335 8.90568 26.049 7.10552 24.0169 6.03536C21.9853 4.96536 19.6603 4.75997 17.4704 5.45708C15.3956 6.11763 13.6693 7.54162 12.6096 9.46693ZM19.5846 16.6533C18.2781 16.6533 17.2152 15.229 17.2152 13.4784C17.2152 11.594 18.4617 10.4679 19.6667 10.4679C20.9651 10.4679 21.8719 11.6961 21.8719 13.4547C21.8718 15.2184 20.8457 16.6533 19.5846 16.6533Z" fill="#336CD9"/>
</svg>
