<svg width="56" height="56" viewBox="0 0 56 56" fill="none" xmlns="http://www.w3.org/2000/svg">
<g clip-path="url(#clip0)">
<path d="M46.9765 36.052C48.6023 34.7958 49.5461 32.851 49.5268 30.797C49.6445 27.3834 46.9823 24.5167 43.5697 24.3816C42.2043 24.3856 40.8865 24.8832 39.859 25.7827C38.3903 27.0908 37.5696 28.9774 37.6134 30.9433C37.6573 32.9096 38.5617 34.7574 40.0872 35.9987C40.0997 36.009 40.1145 36.0153 40.1275 36.0251C37.6049 37.0759 35.5043 38.9366 34.1565 41.3133C33.3264 40.6425 32.3996 40.101 31.407 39.7076C31.8791 39.351 32.298 38.9285 32.6497 38.4533C33.5004 37.2974 33.9551 35.8976 33.9466 34.4629C33.9426 31.0959 31.3466 28.3004 27.9895 28.0475C24.9921 28.1245 22.5013 30.3804 22.1285 33.3558C22.0636 33.721 22.0314 34.0915 22.0323 34.4629C22.0131 36.5116 22.9524 38.4519 24.571 39.7076C23.5789 40.1014 22.6517 40.6425 21.8215 41.3133C20.5242 39.0359 18.5405 37.2262 16.153 36.1437C17.8522 34.8952 18.8465 32.9052 18.8246 30.797C18.9423 27.3834 16.2801 24.5167 12.8675 24.3816C9.45483 24.5167 6.79264 27.3834 6.91034 30.797C6.89378 32.7897 7.78207 34.6822 9.3255 35.9428C4.27187 37.7467 0.541046 43.7862 0.541046 50.9596C0.541046 51.4657 0.951405 51.8761 1.45753 51.8761H16.3593C16.2287 52.7868 16.1597 53.7055 16.153 54.6255C16.153 55.1317 16.5634 55.542 17.0695 55.542H38.9094C39.4155 55.542 39.8259 55.1317 39.8259 54.6255C39.8196 53.7055 39.7507 52.7868 39.6196 51.8761H54.5218C55.028 51.8761 55.4383 51.4657 55.4383 50.9596C55.4383 43.9383 51.8677 37.9919 46.9765 36.052ZM39.4455 30.797C39.424 29.4106 40.0125 28.0851 41.0547 27.1713C41.7506 26.5596 42.6433 26.2195 43.5697 26.2146C45.9696 26.3502 47.8111 28.3957 47.6938 30.797C47.8111 33.1978 45.9696 35.2438 43.5697 35.3794C42.714 35.3794 41.8839 35.0885 41.2154 34.5542C40.0787 33.6408 39.4258 32.2549 39.4455 30.797ZM23.8653 34.4629C23.8648 34.1935 23.8885 33.9246 23.9369 33.6601C24.1673 31.5712 25.8898 29.9646 27.9895 29.8805C30.0963 29.9678 31.8219 31.5841 32.0461 33.6811C32.0921 33.9389 32.115 34.2007 32.1136 34.4629C32.1212 35.506 31.7919 36.5241 31.1743 37.3654C30.444 38.4041 29.2595 39.0292 27.9895 39.0453C25.5895 38.9097 23.7485 36.8638 23.8653 34.4629ZM12.8675 26.2146C15.2674 26.3502 17.1089 28.3957 16.9917 30.797C17.1089 33.1978 15.2674 35.2438 12.8675 35.3794C10.4675 35.2438 8.62651 33.1978 8.7433 30.797C8.62651 28.3957 10.4675 26.3502 12.8675 26.2146ZM16.6829 50.0431H2.39594C2.7432 42.8889 7.12111 37.2124 12.4553 37.2124C15.5914 37.2124 18.5454 39.2194 20.4571 42.6092C18.5834 44.7232 17.2839 47.2829 16.6829 50.0431ZM18.0079 53.7091C18.0487 52.8431 18.1516 51.9817 18.3149 51.131C18.8072 48.2236 20.1671 45.5337 22.2158 43.4129C22.24 43.3897 22.2623 43.3651 22.2834 43.3387C23.791 41.8046 25.8392 40.9213 27.9895 40.8783C30.1397 40.9208 32.1879 41.8033 33.6955 43.3369C33.717 43.3637 33.7403 43.3892 33.7654 43.4129C35.814 45.5345 37.1731 48.2258 37.6649 51.1337C37.8278 51.9835 37.9303 52.8445 37.971 53.7091H18.0079ZM39.296 50.0431C38.6959 47.2829 37.3964 44.7237 35.5222 42.6101C37.434 39.2194 40.3879 37.2124 43.524 37.2124C48.8578 37.2124 53.2388 42.8889 53.5834 50.0431H39.296Z" fill="#EC3C83"/>
<path d="M17.3371 15.5282L19.8418 15.8414L18.2912 17.835C17.8472 18.4092 17.8983 19.2232 18.4102 19.7374L20.7189 22.046C21.2339 22.558 22.0484 22.6085 22.6225 22.1642L24.6139 20.6145L24.9276 23.1214C25.0202 23.8405 25.632 24.3798 26.3574 24.3815H29.6219C30.3473 24.3798 30.9595 23.8401 31.0517 23.1205L31.3649 20.6145L33.3572 22.1655C33.9313 22.6099 34.7462 22.5589 35.26 22.046L37.5695 19.7365C38.081 19.2219 38.1311 18.4078 37.6868 17.8341L36.1371 15.8414L38.6417 15.5282C39.3622 15.4378 39.9028 14.8256 39.9037 14.0993V10.8348C39.9024 10.1089 39.3622 9.49675 38.6417 9.4059L36.1371 9.09265L37.6877 7.09903C38.1316 6.52534 38.0806 5.71088 37.5686 5.1967L35.26 2.88804C34.7453 2.37521 33.9304 2.32464 33.3563 2.7699L31.3649 4.3196L31.0517 1.81314C30.959 1.09356 30.3473 0.554321 29.6219 0.552979H26.3574C25.6315 0.554321 25.0198 1.09401 24.9276 1.81404L24.6139 4.3196L22.6216 2.76901C22.0475 2.32464 21.233 2.37565 20.7189 2.88804L18.4093 5.1976C17.8983 5.71222 17.8477 6.52668 18.2921 7.10037L19.8418 9.09265L17.3371 9.4059C16.6166 9.4963 16.076 10.1089 16.0751 10.8348V14.0993C16.076 14.8256 16.6166 15.4378 17.3371 15.5282ZM17.9081 11.1838L20.6759 10.8384C21.0236 10.7949 21.3163 10.5569 21.4295 10.2253C21.5235 9.95051 21.6353 9.68201 21.7647 9.42157C21.92 9.10652 21.8815 8.73062 21.6658 8.45362L19.9509 6.25415L21.77 4.42969L23.97 6.14227C24.2465 6.35797 24.622 6.3969 24.9366 6.24251C25.1979 6.11319 25.4669 6.00131 25.7421 5.90689C26.0737 5.79367 26.3117 5.501 26.3556 5.15374L26.7064 2.38595H29.2724L29.6179 5.15374C29.6617 5.501 29.8998 5.79367 30.2314 5.90689C30.5066 6.00131 30.7756 6.11319 31.0369 6.24251C31.3524 6.39824 31.7292 6.35976 32.0066 6.14317L34.2061 4.43058L36.0252 6.24878L34.3104 8.44825C34.0947 8.72525 34.0566 9.10115 34.2115 9.4162C34.3408 9.67619 34.4527 9.9447 34.5471 10.2199C34.6603 10.5515 34.9525 10.7896 35.3003 10.833L38.0707 11.1838V13.7502L35.3029 14.0957C34.9552 14.1391 34.663 14.3772 34.5498 14.7088C34.4554 14.9836 34.3435 15.2521 34.2142 15.5125C34.0593 15.8276 34.0978 16.2035 34.3131 16.4805L36.0279 18.6799L34.2088 20.5048L32.0093 18.7918C31.7328 18.5761 31.3573 18.5376 31.0423 18.692C30.7814 18.8209 30.512 18.9328 30.2368 19.0272C29.9052 19.1404 29.6671 19.4331 29.6237 19.7808L29.2724 22.5486H26.7064L26.361 19.7808C26.3176 19.4331 26.0795 19.1404 25.7479 19.0272C25.4722 18.9328 25.2033 18.8209 24.9424 18.692C24.6273 18.5376 24.2519 18.5761 23.9753 18.7918L21.7759 20.5048L19.9563 18.6862L21.6711 16.4867C21.8868 16.2097 21.9253 15.8338 21.77 15.5188C21.6412 15.2588 21.5288 14.9903 21.4349 14.7151C21.3216 14.3835 21.029 14.1458 20.6813 14.102L17.9081 13.7502V11.1838Z" fill="#EC3C83"/>
<path d="M27.9894 17.9661C31.0266 17.9661 33.4883 15.5039 33.4883 12.4672C33.4883 9.42997 31.0266 6.96826 27.9894 6.96826C24.9527 6.96826 22.4905 9.42997 22.4905 12.4672C22.4937 15.5026 24.954 17.9629 27.9894 17.9661ZM27.9894 8.80123C30.0144 8.80123 31.6554 10.4422 31.6554 12.4672C31.6554 14.4917 30.0144 16.1331 27.9894 16.1331C25.9649 16.1331 24.3235 14.4917 24.3235 12.4672C24.3235 10.4422 25.9649 8.80123 27.9894 8.80123Z" fill="#EC3C83"/>
<path d="M6.07664 26.0923C6.21402 26.0923 6.35006 26.061 6.47402 26.0006C6.70314 25.891 6.87766 25.6923 6.95732 25.4511C7.08799 25.0394 6.94076 24.7736 6.6472 24.2428C5.98937 23.0516 3.98949 19.4313 5.20311 16.4778C5.89584 14.7961 10.5396 13.4383 13.0344 12.7089C13.6063 12.5424 14.1214 12.3921 14.5429 12.2565C14.9224 12.1339 15.1793 11.7799 15.1779 11.3812L15.1587 4.21891C15.1408 3.94101 15.0016 3.68549 14.7783 3.51947C14.5487 3.34673 14.2565 3.28005 13.9746 3.33599C8.76254 4.38941 2.55614 6.08544 0.821176 9.84311C-2.1838 16.3502 3.92639 24.3686 5.25323 25.6771C5.46311 25.9178 5.75846 26.0668 6.07664 26.0923ZM3.51021 15.7739C3.13521 16.7047 2.958 17.7035 2.98977 18.7063C1.90905 16.1735 1.29687 13.1913 2.48946 10.6119C3.87672 7.60158 10.0961 6.0295 13.3311 5.33946L13.3467 10.6983C13.0903 10.7753 12.8142 10.8558 12.522 10.9404C8.3128 12.1737 4.45802 13.4688 3.50753 15.7739H3.51021Z" fill="#EC3C83"/>
<path d="M41.4552 12.2505C41.8772 12.3861 42.3932 12.5365 42.9651 12.7034C45.4594 13.4364 50.1032 14.7901 50.7964 16.4718C52.0131 19.4248 50.0096 23.046 49.3527 24.2355C49.0587 24.768 48.911 25.0347 49.043 25.446C49.1218 25.6867 49.2945 25.8854 49.5223 25.996C49.6458 26.0564 49.781 26.0877 49.9184 26.0877C50.2361 26.0671 50.5332 25.9208 50.7431 25.6809C52.0717 24.3729 58.1869 16.3554 55.177 9.84473C53.442 6.08348 47.2356 4.39103 42.0235 3.33761L41.9385 3.32061C41.6691 3.26556 41.3894 3.33403 41.1764 3.50766C40.9634 3.68129 40.8394 3.94084 40.8385 4.21561L40.8202 11.3752C40.8189 11.7744 41.0757 12.1283 41.4552 12.2505ZM42.6706 5.34197C45.8277 6.01322 52.116 7.58664 53.5136 10.6167C54.7048 13.1947 54.0918 16.176 53.0124 18.7102C53.0437 17.7069 52.8661 16.7081 52.4906 15.7773C51.5406 13.4722 47.6858 12.1771 43.4779 10.9474C43.1866 10.8632 42.9109 10.7822 42.6532 10.7053L42.6706 5.34197Z" fill="#EC3C83"/>
</g>
<defs>
<clipPath id="clip0">
<rect width="56" height="56" fill="white"/>
</clipPath>
</defs>
</svg>
