<svg width="92" height="76" viewBox="0 0 92 76" fill="none" xmlns="http://www.w3.org/2000/svg">
<path d="M22 75.2C14.9333 75.2 9.6 72.6667 6 67.6C2.53333 62.4 0.8 55.2 0.8 46C0.8 36 3.33333 27.2 8.4 19.6C13.4667 11.8667 21.3333 5.46666 32 0.399993L39.2 15.2C32.8 18 28 21.4667 24.8 25.6C21.6 29.6 20 34.6 20 40.6C20.4 40.4667 21.0667 40.4 22 40.4C26.8 40.4 30.8667 41.8667 34.2 44.8C37.5333 47.7333 39.2 51.7333 39.2 56.8C39.2 62.4 37.6 66.8667 34.4 70.2C31.2 73.5333 27.0667 75.2 22 75.2ZM74 75.2C66.9333 75.2 61.6 72.6667 58 67.6C54.5333 62.4 52.8 55.2 52.8 46C52.8 36 55.3333 27.2 60.4 19.6C65.4667 11.8667 73.3333 5.46666 84 0.399993L91.2 15.2C84.8 18 80 21.4667 76.8 25.6C73.6 29.6 72 34.6 72 40.6C72.4 40.4667 73.0667 40.4 74 40.4C78.8 40.4 82.8667 41.8667 86.2 44.8C89.5333 47.7333 91.2 51.7333 91.2 56.8C91.2 62.4 89.6 66.8667 86.4 70.2C83.2 73.5333 79.0667 75.2 74 75.2Z" fill="black" fill-opacity="0.1"/>
</svg>
