<svg width="33" height="32" viewBox="0 0 33 32" fill="none" xmlns="http://www.w3.org/2000/svg">
<path d="M28.1133 25.72L23.58 21.2C25.0427 19.3366 25.8363 17.0355 25.8333 14.6667C25.8333 12.557 25.2077 10.4947 24.0357 8.74059C22.8636 6.98646 21.1977 5.61929 19.2486 4.81196C17.2996 4.00462 15.1548 3.79339 13.0857 4.20496C11.0166 4.61654 9.11596 5.63244 7.6242 7.1242C6.13244 8.61596 5.11654 10.5166 4.70496 12.5857C4.29339 14.6548 4.50462 16.7996 5.31196 18.7486C6.11929 20.6977 7.48646 22.3636 9.24059 23.5357C10.9947 24.7077 13.057 25.3333 15.1667 25.3333C17.5355 25.3363 19.8366 24.5427 21.7 23.08L26.22 27.6133C26.344 27.7383 26.4914 27.8375 26.6539 27.9052C26.8164 27.9729 26.9907 28.0077 27.1667 28.0077C27.3427 28.0077 27.517 27.9729 27.6794 27.9052C27.8419 27.8375 27.9894 27.7383 28.1133 27.6133C28.2383 27.4894 28.3375 27.3419 28.4052 27.1794C28.4729 27.017 28.5077 26.8427 28.5077 26.6667C28.5077 26.4907 28.4729 26.3164 28.4052 26.1539C28.3375 25.9914 28.2383 25.844 28.1133 25.72ZM7.16667 14.6667C7.16667 13.0844 7.63586 11.5377 8.51491 10.2221C9.39397 8.90652 10.6434 7.88114 12.1052 7.27564C13.567 6.67013 15.1755 6.51171 16.7274 6.82039C18.2792 7.12907 19.7047 7.891 20.8235 9.00982C21.9423 10.1286 22.7043 11.5541 23.013 13.1059C23.3216 14.6578 23.1632 16.2663 22.5577 17.7281C21.9522 19.1899 20.9268 20.4394 19.6112 21.3184C18.2956 22.1975 16.7489 22.6667 15.1667 22.6667C13.0449 22.6667 11.0101 21.8238 9.50982 20.3235C8.00953 18.8232 7.16667 16.7884 7.16667 14.6667Z" fill="white"/>
</svg>
