<svg width="56" height="56" viewBox="0 0 56 56" fill="none" xmlns="http://www.w3.org/2000/svg">
<path d="M23.1188 52.3871H16.0351C12.6296 52.3871 10.0724 49.2846 10.7129 45.9464L13.6685 30.5435C15.3174 21.95 24.1195 16.6724 32.4881 19.3022C33.44 19.6012 34.4539 19.0722 34.753 18.1204C35.051 17.172 34.5265 16.1622 33.5812 15.8592C34.861 13.445 34.049 10.4069 31.6399 8.9714L35.0903 2.67456C35.7484 1.47305 34.8779 0 33.5059 0H21.764C20.3939 0 19.5206 1.47135 20.1797 2.67445L23.63 8.97129C21.1162 10.4692 20.3618 13.688 21.8353 16.1192C15.928 18.2745 11.3596 23.4036 10.1203 29.8628L7.16478 45.2657C6.09503 50.8401 10.3701 56 16.0351 56H23.1188C24.1164 56 24.9253 55.1913 24.9253 54.1935C24.9253 53.1958 24.1165 52.3871 23.1188 52.3871ZM30.4563 3.6129L27.9198 8.24193H27.3502L24.8137 3.6129H30.4563ZM26.2801 15.0161C25.4085 15.0161 24.6994 14.3071 24.6994 13.4355C24.6994 12.5664 25.4057 11.8548 26.2811 11.8548H28.9773C29.8895 11.8548 30.5704 12.5875 30.5704 13.4355C30.5704 14.3071 29.8614 15.0161 28.9898 15.0161H26.2801ZM44.0927 32.9938C44.7983 33.6992 44.7983 34.8431 44.0927 35.5485L35.1836 44.4577C34.8308 44.8104 34.3686 44.9869 33.9063 44.9869C32.3115 44.9869 31.4875 43.0444 32.6289 41.9031L41.5379 32.9939C42.2435 32.2884 43.3873 32.2884 44.0927 32.9938ZM42.0729 40.78C40.7493 40.78 39.6724 41.8567 39.6724 43.1804C39.6724 44.504 40.7493 45.5807 42.0729 45.5807C43.3964 45.5807 44.4733 44.504 44.4733 43.1804C44.4733 41.8567 43.3966 40.78 42.0729 40.78ZM34.6487 36.6716C35.9723 36.6716 37.0491 35.5949 37.0491 34.2712C37.0491 32.9476 35.9723 31.8709 34.6487 31.8709C33.3251 31.8709 32.2483 32.9476 32.2483 34.2712C32.2483 35.5949 33.325 36.6716 34.6487 36.6716ZM38.3607 21.4516C28.8358 21.4516 21.0865 29.2008 21.0865 38.7258C21.0865 48.2508 28.8358 56 38.3607 56C47.8857 56 55.6349 48.2508 55.6349 38.7258C55.6349 29.2008 47.8858 21.4516 38.3607 21.4516ZM38.3607 52.3871C30.8278 52.3871 24.6994 46.2587 24.6994 38.7258C24.6994 31.1929 30.8278 25.0645 38.3607 25.0645C45.8936 25.0645 52.022 31.1929 52.022 38.7258C52.022 46.2587 45.8936 52.3871 38.3607 52.3871Z" fill="#01B29E"/>
</svg>
