<svg width="40" height="40" viewBox="0 0 40 40" fill="none" xmlns="http://www.w3.org/2000/svg">
<rect x="1.5" y="1.5" width="37" height="37" stroke="#5CCEFF" stroke-width="3"/>
<path d="M32 12.3093C31.3317 13.3034 30.5117 14.1508 29.5402 14.8516C29.5498 15.0395 29.5546 15.2519 29.5546 15.4888C29.5546 16.8051 29.3627 18.1229 28.9789 19.4423C28.5951 20.7618 28.0088 22.0247 27.2201 23.2312C26.4314 24.4376 25.4918 25.5064 24.4015 26.4376C23.3112 27.3687 22.0006 28.1112 20.4697 28.6649C18.9389 29.2187 17.2981 29.4955 15.5476 29.4955C12.8157 29.4955 10.2998 28.758 8 27.2829C8.40818 27.3284 8.79967 27.3511 9.17445 27.3511C11.4568 27.3511 13.4953 26.6481 15.2899 25.2421C14.2258 25.2226 13.2728 24.895 12.4308 24.2594C11.5889 23.6237 11.0096 22.8115 10.6927 21.8226C11.0059 21.8823 11.315 21.9121 11.62 21.9121C12.0591 21.9121 12.4911 21.8549 12.9161 21.7403C11.7805 21.5129 10.8384 20.9473 10.0898 20.0434C9.3412 19.1396 8.96692 18.0965 8.96692 16.914V16.853C9.66399 17.239 10.4075 17.4443 11.1975 17.4689C10.5248 17.0204 9.99138 16.4356 9.59735 15.7144C9.20329 14.9931 9.00626 14.2127 9.00626 13.3729C9.00626 12.4872 9.22819 11.6625 9.67205 10.8988C10.9071 12.4143 12.4035 13.6256 14.1614 14.5326C15.9194 15.4396 17.8053 15.9433 19.8193 16.0437C19.7334 15.6858 19.6904 15.3122 19.6902 14.923C19.6902 13.5643 20.171 12.4041 21.1327 11.4424C22.0945 10.4808 23.2547 10 24.6135 10C26.0361 10 27.2344 10.518 28.2083 11.554C29.3211 11.3336 30.363 10.9349 31.3341 10.358C30.96 11.5354 30.2391 12.4437 29.1714 13.0828C30.1527 12.9662 31.0955 12.7084 32 12.3093H32Z" fill="#5CCEFF"/>
</svg>
